<svg id="Capa_1" enable-background="new 0 0 512.002 512.002" height="512" viewBox="0 0 512.002 512.002" width="512" xmlns="http://www.w3.org/2000/svg"><g><circle cx="266.001" cy="232.5" r="7.5"/><circle cx="236.001" cy="232.5" r="7.5"/><circle cx="266.001" cy="202.5" r="7.5"/><circle cx="236.001" cy="202.5" r="7.5"/><path d="m386.001 155h-7.5v-102c0-4.143-3.357-7.5-7.5-7.5s-7.5 3.357-7.5 7.5v109.5c0 4.143 3.357 7.5 7.5 7.5h15c4.136 0 7.5 3.364 7.5 7.5s-3.364 7.5-7.5 7.5h-52.638c-1.248-11.234-10.8-20-22.362-20-6.5 0-12.365 2.771-16.476 7.193-4.891-4.466-11.395-7.193-18.524-7.193h-50c-7.129 0-13.633 2.727-18.524 7.192-4.111-4.422-9.976-7.192-16.476-7.192-11.562 0-21.114 8.766-22.362 20h-42.638c-4.136 0-7.5-3.364-7.5-7.5s3.364-7.5 7.5-7.5h15c4.142 0 7.5-3.357 7.5-7.5v-109.5c0-4.143-3.358-7.5-7.5-7.5s-7.5 3.357-7.5 7.5v102h-7.5c-12.407 0-22.5 10.094-22.5 22.5s10.093 22.5 22.5 22.5h42.5v7.5c0 12.406 10.093 22.5 22.5 22.5 2.629 0 5.153-.453 7.5-1.285v26.285h-22.5c-4.142 0-7.5 3.357-7.5 7.5v105c0 4.143 3.358 7.5 7.5 7.5h37.5v114.095l-24.872 8.29c-3.93 1.31-6.053 5.558-4.744 9.487 1.048 3.143 3.974 5.13 7.114 5.13.786 0 1.586-.125 2.373-.387l30-10c3.063-1.021 5.128-3.887 5.128-7.115v-119.5h45v119.5c0 3.229 2.065 6.095 5.128 7.115l30 10c.787.262 1.587.387 2.373.387 3.141 0 6.066-1.987 7.114-5.13 1.31-3.93-.813-8.178-4.743-9.487l-24.872-8.29v-114.095h37.5c4.143 0 7.5-3.357 7.5-7.5v-105c0-4.143-3.357-7.5-7.5-7.5h-22.5v-26.285c2.347.832 4.872 1.285 7.5 1.285 12.406 0 22.5-10.094 22.5-22.5v-7.5h52.5c12.406 0 22.5-10.094 22.5-22.5s-10.093-22.5-22.499-22.5zm-172.5 37.5c0-6.893 5.607-12.5 12.5-12.5h50c6.893 0 12.5 5.607 12.5 12.5v62.5h-75zm-22.5 22.5c-4.136 0-7.5-3.364-7.5-7.5v-20c0-4.136 3.364-7.5 7.5-7.5s7.5 3.364 7.5 7.5v20c0 4.136-3.364 7.5-7.5 7.5zm-7.5 85h17.865l-17.865 35.729zm4.635 60 25.365-50.729 25.365 50.729zm37.5-60h50.729l-25.365 50.729zm37.5 60 25.365-50.729 25.365 50.729zm55.365-24.271-17.865-35.729h17.865zm0-65.729v15h-135v-15zm0-62.5c0 4.136-3.364 7.5-7.5 7.5s-7.5-3.364-7.5-7.5v-20c0-4.136 3.364-7.5 7.5-7.5s7.5 3.364 7.5 7.5z"/><path d="m251 150.5c28.948 0 52.5-23.552 52.5-52.5 0-9.649-2.612-18.997-7.576-27.184v-55.186c0-2.934-1.711-5.598-4.378-6.819-12.77-5.847-26.411-8.811-40.546-8.811-14.133 0-27.773 2.964-40.543 8.81-2.667 1.221-4.378 3.886-4.378 6.819v55.188c-4.966 8.186-7.579 17.534-7.579 27.183 0 28.948 23.551 52.5 52.5 52.5zm-29.922-85v-15h59.846v15zm29.922-50.5c10.362 0 20.406 1.88 29.924 5.594v14.906h-59.846v-14.906c9.518-3.714 19.562-5.594 29.922-5.594zm-33.176 65.5h66.353c2.838 5.368 4.323 11.346 4.323 17.5 0 20.678-16.822 37.5-37.5 37.5s-37.5-16.822-37.5-37.5c0-6.153 1.486-12.132 4.324-17.5z"/></g></svg>