<svg id="Capa_1" enable-background="new 0 0 510 510" height="512" viewBox="0 0 510 510" width="512" xmlns="http://www.w3.org/2000/svg"><g><path d="m0 300h120v210h-120z"/><path d="m390 330h120v180h-120z"/><path d="m195 211.77v28.23h120v-28.23c0-8.656 2.046-17.322 5.916-25.062 5.942-11.884 9.084-25.19 9.084-38.479v-13.229c0-21.305-8.944-40.548-23.257-54.214-27.052 32.284-76.431 32.288-103.486 0-14.313 13.666-23.257 32.909-23.257 54.214v13.23c0 13.288 3.141 26.594 9.083 38.478 3.871 7.741 5.917 16.408 5.917 25.062z"/><circle cx="255" cy="37.5" r="37.5"/><path d="m150 510h210v-240h-210zm120-195v118.027h30v30h-90v-30h30v-61.973l-21.68 14.453-16.641-24.961z"/></g></svg>